<svg width="62" height="62" viewBox="0 0 62 62" fill="none" xmlns="http://www.w3.org/2000/svg">
<rect x="0.5" y="0.5" width="61" height="61" rx="30.5" stroke="url(#paint0_linear_104_11618)"/>
<rect x="0.5" y="0.5" width="61" height="61" rx="30.5" stroke="url(#paint1_linear_104_11618)"/>
<path fill-rule="evenodd" clip-rule="evenodd" d="M26.75 20.375C27.2244 20.375 27.6413 20.6895 27.7716 21.1456L28.9236 25.1777C29.4279 26.9426 30.8074 28.3221 32.5723 28.8264L36.6044 29.9784C37.0605 30.1087 37.375 30.5256 37.375 31C37.375 31.4744 37.0605 31.8913 36.6044 32.0216L32.5723 33.1736C30.8074 33.6779 29.4279 35.0574 28.9236 36.8223L27.7716 40.8544C27.6413 41.3105 27.2244 41.625 26.75 41.625C26.2756 41.625 25.8587 41.3105 25.7284 40.8544L24.5764 36.8223C24.0721 35.0574 22.6926 33.6779 20.9277 33.1736L16.8956 32.0216C16.4395 31.8913 16.125 31.4744 16.125 31C16.125 30.5256 16.4395 30.1087 16.8956 29.9784L20.9277 28.8264C22.6926 28.3221 24.0721 26.9426 24.5764 25.1777L25.7284 21.1456C25.8587 20.6895 26.2756 20.375 26.75 20.375Z" fill="#A685FA"/>
<path fill-rule="evenodd" clip-rule="evenodd" d="M39.5 16.125C39.9875 16.125 40.4125 16.4568 40.5308 16.9298L40.8975 18.3967C41.2306 19.7291 42.2709 20.7694 43.6033 21.1025L45.0702 21.4692C45.5432 21.5875 45.875 22.0125 45.875 22.5C45.875 22.9875 45.5432 23.4125 45.0702 23.5308L43.6033 23.8975C42.2709 24.2306 41.2306 25.2709 40.8975 26.6033L40.5308 28.0702C40.4125 28.5432 39.9875 28.875 39.5 28.875C39.0125 28.875 38.5875 28.5432 38.4692 28.0702L38.1025 26.6033C37.7694 25.2709 36.7291 24.2306 35.3967 23.8975L33.9298 23.5308C33.4568 23.4125 33.125 22.9875 33.125 22.5C33.125 22.0125 33.4568 21.5875 33.9298 21.4692L35.3967 21.1025C36.7291 20.7694 37.7694 19.7291 38.1025 18.3967L38.4692 16.9298C38.5875 16.4568 39.0125 16.125 39.5 16.125Z" fill="#A685FA"/>
<path fill-rule="evenodd" clip-rule="evenodd" d="M37.375 35.25C37.8323 35.25 38.2384 35.5426 38.383 35.9765L38.9415 37.652C39.153 38.2866 39.6509 38.7845 40.2855 38.996L41.961 39.5545C42.3949 39.6991 42.6875 40.1052 42.6875 40.5625C42.6875 41.0198 42.3949 41.4259 41.961 41.5705L40.2855 42.129C39.6509 42.3405 39.153 42.8384 38.9415 43.473L38.383 45.1485C38.2384 45.5824 37.8323 45.875 37.375 45.875C36.9177 45.875 36.5116 45.5824 36.367 45.1485L35.8085 43.473C35.597 42.8384 35.0991 42.3405 34.4645 42.129L32.789 41.5705C32.3551 41.4259 32.0625 41.0198 32.0625 40.5625C32.0625 40.1052 32.3551 39.6991 32.789 39.5545L34.4645 38.996C35.0991 38.7845 35.597 38.2866 35.8085 37.652L36.367 35.9765C36.5116 35.5426 36.9177 35.25 37.375 35.25Z" fill="#A685FA"/>
<defs>
<linearGradient id="paint0_linear_104_11618" x1="-6.75" y1="3.5" x2="61.75" y2="62" gradientUnits="userSpaceOnUse">
<stop stop-color="#A685FA"/>
<stop offset="0.323723" stop-color="#A685FA" stop-opacity="0"/>
</linearGradient>
<linearGradient id="paint1_linear_104_11618" x1="74.25" y1="76" x2="2.25" y2="25" gradientUnits="userSpaceOnUse">
<stop stop-color="#A685FA"/>
<stop offset="0.576615" stop-color="#A685FA" stop-opacity="0"/>
</linearGradient>
</defs>
</svg>
