<svg width="17" height="20" viewBox="0 0 17 20" fill="none" xmlns="http://www.w3.org/2000/svg">
<path fill-rule="evenodd" clip-rule="evenodd" d="M1.2 17.4V1.8H0.9C0.402944 1.8 0 1.39706 0 0.9C0 0.402944 0.402944 0 0.9 0H15.9C16.3971 0 16.8 0.402944 16.8 0.9C16.8 1.39706 16.3971 1.8 15.9 1.8H15.6V17.4H15.9C16.3971 17.4 16.8 17.8029 16.8 18.3C16.8 18.7971 16.3971 19.2 15.9 19.2H11.7C11.2029 19.2 10.8 18.7971 10.8 18.3V15.3C10.8 14.8029 10.3971 14.4 9.9 14.4H6.9C6.40294 14.4 6 14.8029 6 15.3V18.3C6 18.7971 5.59706 19.2 5.1 19.2H0.9C0.402944 19.2 0 18.7971 0 18.3C0 17.8029 0.402944 17.4 0.9 17.4H1.2ZM4.8 4.2C4.8 3.86863 5.06863 3.6 5.4 3.6H6.6C6.93137 3.6 7.2 3.86863 7.2 4.2V5.4C7.2 5.73137 6.93137 6 6.6 6H5.4C5.06863 6 4.8 5.73137 4.8 5.4V4.2ZM5.4 8.4C5.06863 8.4 4.8 8.66863 4.8 9V10.2C4.8 10.5314 5.06863 10.8 5.4 10.8H6.6C6.93137 10.8 7.2 10.5314 7.2 10.2V9C7.2 8.66863 6.93137 8.4 6.6 8.4H5.4ZM9.6 4.2C9.6 3.86863 9.86863 3.6 10.2 3.6H11.4C11.7314 3.6 12 3.86863 12 4.2V5.4C12 5.73137 11.7314 6 11.4 6H10.2C9.86863 6 9.6 5.73137 9.6 5.4V4.2ZM10.2 8.4C9.86863 8.4 9.6 8.66863 9.6 9V10.2C9.6 10.5314 9.86863 10.8 10.2 10.8H11.4C11.7314 10.8 12 10.5314 12 10.2V9C12 8.66863 11.7314 8.4 11.4 8.4H10.2Z" fill="white"/>
</svg>
