<svg width="20" height="20" viewBox="0 0 20 20" fill="none" xmlns="http://www.w3.org/2000/svg">
<path fill-rule="evenodd" clip-rule="evenodd" d="M4.5 0C4.91421 0 5.25 0.335786 5.25 0.75V2.25H14.25V0.75C14.25 0.335786 14.5858 0 15 0C15.4142 0 15.75 0.335786 15.75 0.75V2.25H16.5C18.1569 2.25 19.5 3.59315 19.5 5.25V16.5C19.5 18.1569 18.1569 19.5 16.5 19.5H3C1.34315 19.5 0 18.1569 0 16.5V5.25C0 3.59315 1.34315 2.25 3 2.25H3.75V0.75C3.75 0.335786 4.08579 0 4.5 0ZM18 9C18 8.17157 17.3284 7.5 16.5 7.5H3C2.17157 7.5 1.5 8.17157 1.5 9V16.5C1.5 17.3284 2.17157 18 3 18H16.5C17.3284 18 18 17.3284 18 16.5V9Z" fill="#999999"/>
</svg>
